<mxfile host="app.diagrams.net" modified="2024-05-04T11:29:59.894Z" agent="Mozilla/5.0 (Windows NT 10.0; Win64; x64; rv:125.0) Gecko/20100101 Firefox/125.0" etag="adoVeNzJ6Q4va_Q6sR0H" version="24.3.1" type="device">
  <diagram name="Page-1" id="b7a7eaba-c6c5-6fbe-34ae-1d3a4219ac39">
    <mxGraphModel dx="2074" dy="1106" grid="1" gridSize="10" guides="1" tooltips="1" connect="1" arrows="1" fold="1" page="1" pageScale="1.5" pageWidth="1169" pageHeight="826" background="none" math="0" shadow="0">
      <root>
        <mxCell id="0" style=";html=1;" />
        <mxCell id="1" style=";html=1;" parent="0" />
        <mxCell id="4xz0xfIg7ejDebEY6qKI-7" value="10/7 &lt;br style=&quot;font-size: 17px;&quot;&gt;Submit Research Paper" style="ellipse;whiteSpace=wrap;html=1;aspect=fixed;fontStyle=1;fontSize=17;fillColor=#6d8764;fontColor=#ffffff;strokeColor=#3A5431;" vertex="1" parent="1">
          <mxGeometry x="1430" y="556" width="130" height="130" as="geometry" />
        </mxCell>
        <mxCell id="4xz0xfIg7ejDebEY6qKI-5" value="" style="html=1;shadow=0;dashed=0;align=center;verticalAlign=middle;shape=mxgraph.arrows2.arrow;dy=0.5;dx=15;direction=north;notch=0;rounded=0;strokeWidth=1;fontSize=20;rotation=155;" vertex="1" parent="1">
          <mxGeometry x="1170" y="385" width="20" height="240" as="geometry" />
        </mxCell>
        <mxCell id="4xz0xfIg7ejDebEY6qKI-6" value="" style="html=1;shadow=0;dashed=0;align=center;verticalAlign=middle;shape=mxgraph.arrows2.arrow;dy=0.5;dx=15;direction=north;notch=0;rounded=0;strokeWidth=1;fontSize=20;rotation=155;" vertex="1" parent="1">
          <mxGeometry x="790" y="385" width="20" height="240" as="geometry" />
        </mxCell>
        <mxCell id="279d4c6e8b4f5ae2-5" value="" style="html=1;shadow=0;dashed=0;align=center;verticalAlign=middle;shape=mxgraph.arrows2.arrow;dy=0.5;dx=15;direction=north;notch=0;rounded=0;strokeWidth=1;fontSize=20;rotation=90;" parent="1" vertex="1">
          <mxGeometry x="952.5" y="144.5" width="20" height="950" as="geometry" />
        </mxCell>
        <mxCell id="279d4c6e8b4f5ae2-6" value="" style="html=1;shadow=0;dashed=0;align=center;verticalAlign=middle;shape=mxgraph.arrows2.arrow;dy=0.5;dx=15;direction=north;notch=0;rounded=0;strokeWidth=1;fontSize=20;rotation=155;" parent="1" vertex="1">
          <mxGeometry x="613" y="384" width="20" height="240" as="geometry" />
        </mxCell>
        <mxCell id="279d4c6e8b4f5ae2-7" value="" style="html=1;shadow=0;dashed=0;align=center;verticalAlign=middle;shape=mxgraph.arrows2.arrow;dy=0.5;dx=15;direction=north;notch=0;rounded=0;strokeWidth=1;fontSize=20;rotation=155;" parent="1" vertex="1">
          <mxGeometry x="991" y="385" width="20" height="240" as="geometry" />
        </mxCell>
        <mxCell id="279d4c6e8b4f5ae2-8" value="" style="html=1;shadow=0;dashed=0;align=center;verticalAlign=middle;shape=mxgraph.arrows2.arrow;dy=0.5;dx=15;direction=north;notch=0;rounded=0;strokeWidth=1;fontSize=20;rotation=155;" parent="1" vertex="1">
          <mxGeometry x="1349" y="385" width="20" height="240" as="geometry" />
        </mxCell>
        <mxCell id="279d4c6e8b4f5ae2-9" value="&lt;div&gt;10/5 &lt;br&gt;&lt;/div&gt;&lt;div&gt;Research proposal&lt;br&gt;&lt;/div&gt;" style="rounded=1;whiteSpace=wrap;html=1;shadow=1;strokeWidth=2;fontSize=20;align=center;labelPosition=center;verticalLabelPosition=middle;verticalAlign=middle;fillColor=#e3c800;strokeColor=#B09500;fontColor=#000000;" parent="1" vertex="1">
          <mxGeometry x="499" y="310" width="150" height="94" as="geometry" />
        </mxCell>
        <mxCell id="4xz0xfIg7ejDebEY6qKI-1" value="&lt;div&gt;5/6 &lt;br&gt;&lt;/div&gt;&lt;div&gt;Revisions based on peer Feedback&lt;/div&gt;" style="rounded=1;whiteSpace=wrap;html=1;shadow=1;strokeWidth=2;fontSize=20;align=center;labelPosition=center;verticalLabelPosition=middle;verticalAlign=middle;fillColor=#f0a30a;fontColor=#000000;strokeColor=#BD7000;" vertex="1" parent="1">
          <mxGeometry x="684" y="310" width="150" height="94" as="geometry" />
        </mxCell>
        <mxCell id="4xz0xfIg7ejDebEY6qKI-2" value="&lt;div&gt;8/7 &lt;br&gt;&lt;/div&gt;&lt;div&gt;Finalization Paper&lt;/div&gt;" style="rounded=1;whiteSpace=wrap;html=1;shadow=1;strokeWidth=2;fontSize=20;align=center;labelPosition=center;verticalLabelPosition=middle;verticalAlign=middle;fillColor=#a0522d;fontColor=#ffffff;strokeColor=#6D1F00;" vertex="1" parent="1">
          <mxGeometry x="1240" y="310" width="150" height="95" as="geometry" />
        </mxCell>
        <mxCell id="4xz0xfIg7ejDebEY6qKI-3" value="&lt;div&gt;15/6&lt;/div&gt;&lt;div&gt;Finish Artifact&lt;br&gt;&lt;br&gt;&lt;/div&gt;" style="rounded=1;whiteSpace=wrap;html=1;shadow=1;strokeWidth=2;fontSize=20;align=center;labelPosition=center;verticalLabelPosition=middle;verticalAlign=middle;fillColor=#fa6800;fontColor=#000000;strokeColor=#C73500;" vertex="1" parent="1">
          <mxGeometry x="870" y="310" width="150" height="95" as="geometry" />
        </mxCell>
        <mxCell id="4xz0xfIg7ejDebEY6qKI-4" value="31/6&lt;br&gt;Process results" style="rounded=1;whiteSpace=wrap;html=1;shadow=1;strokeWidth=2;fontSize=20;align=center;labelPosition=center;verticalLabelPosition=middle;verticalAlign=middle;fillColor=#e51400;fontColor=#ffffff;strokeColor=#B20000;" vertex="1" parent="1">
          <mxGeometry x="1055" y="310" width="150" height="95" as="geometry" />
        </mxCell>
      </root>
    </mxGraphModel>
  </diagram>
</mxfile>
